<?xml version="1.0" encoding="UTF-8"?>
<!DOCTYPE svg PUBLIC "-//W3C//DTD SVG 1.1//EN" "http://www.w3.org/Graphics/SVG/1.1/DTD/svg11.dtd">
<svg xmlns="http://www.w3.org/2000/svg" version="1.1" width="24px" height="24px" viewBox="0 0 512 512" style="shape-rendering:geometricPrecision; text-rendering:geometricPrecision; image-rendering:optimizeQuality; fill-rule:evenodd; clip-rule:evenodd" xmlns:xlink="http://www.w3.org/1999/xlink">
<g><path style="opacity:1" fill="#ff8800" d="M 145.5,52.5 C 154.425,59.7561 162.759,67.7561 170.5,76.5C 135.097,114.681 126.263,158.348 144,207.5C 150.682,222.006 159.516,235.006 170.5,246.5C 162.833,254.833 154.833,262.833 146.5,270.5C 107.877,230.711 93.7105,183.378 104,128.5C 110.834,99.1517 124.667,73.8184 145.5,52.5 Z"/></g>
<g><path style="opacity:1" fill="#ff8800" d="M 364.5,52.5 C 386.914,72.9581 401.414,98.2915 408,128.5C 418.29,183.378 404.123,230.711 365.5,270.5C 357.167,262.833 349.167,254.833 341.5,246.5C 376.902,208.323 385.736,164.657 368,115.5C 361.64,100.768 352.807,87.7682 341.5,76.5C 349.188,68.4794 356.855,60.4794 364.5,52.5 Z"/></g>
<g><path style="opacity:1" fill="#ff8800" d="M 192.5,97.5 C 200.812,105.146 208.812,113.146 216.5,121.5C 194.295,148.049 194.295,174.716 216.5,201.5C 209.138,209.695 201.305,217.362 193,224.5C 175.169,207.485 166.003,186.485 165.5,161.5C 166.297,136.587 175.297,115.253 192.5,97.5 Z"/></g>
<g><path style="opacity:1" fill="#ff8800" d="M 318.5,97.5 C 345.617,125.236 352.784,157.569 340,194.5C 335.431,206.342 328.431,216.342 319,224.5C 310.695,217.362 302.862,209.695 295.5,201.5C 317.707,174.715 317.707,148.048 295.5,121.5C 303.188,113.479 310.855,105.479 318.5,97.5 Z"/></g>
<g><path style="opacity:1" fill="#ff8800" d="M 252.5,135.5 C 272.304,136.458 281.47,146.791 280,166.5C 272.663,184.952 259.83,190.118 241.5,182C 229.418,171.764 227.252,159.597 235,145.5C 239.669,139.921 245.502,136.588 252.5,135.5 Z"/></g>
<g><path style="opacity:1" fill="#ff8800" d="M 123.5,287.5 C 211.834,287.333 300.167,287.5 388.5,288C 404.333,290.5 413.5,299.667 416,315.5C 416.667,354.167 416.667,392.833 416,431.5C 413.083,447.416 403.583,456.582 387.5,459C 299.833,459.667 212.167,459.667 124.5,459C 108.417,456.582 98.9167,447.416 96,431.5C 95.3333,392.833 95.3333,354.167 96,315.5C 98.6794,299.655 107.846,290.322 123.5,287.5 Z M 291.5,320.5 C 308.637,317.478 323.137,322.145 335,334.5C 338.657,340.304 340.824,346.637 341.5,353.5C 335.132,353.83 328.798,353.496 322.5,352.5C 320.062,341.564 313.229,335.898 302,335.5C 289.103,336.059 281.436,342.726 279,355.5C 277.027,367.172 277.027,378.839 279,390.5C 283.287,406.734 293.787,413.568 310.5,411C 314.451,410.464 317.951,408.964 321,406.5C 321.5,399.842 321.666,393.175 321.5,386.5C 315.167,386.5 308.833,386.5 302.5,386.5C 302.5,381.5 302.5,376.5 302.5,371.5C 315.5,371.5 328.5,371.5 341.5,371.5C 341.667,385.504 341.5,399.504 341,413.5C 334.056,420.711 325.556,424.878 315.5,426C 297.13,429.953 281.297,425.453 268,412.5C 262.52,405.065 259.186,396.732 258,387.5C 257.144,376.123 257.478,364.79 259,353.5C 263.397,335.938 274.23,324.938 291.5,320.5 Z M 212.5,321.5 C 219.167,321.5 225.833,321.5 232.5,321.5C 232.5,343.5 232.5,365.5 232.5,387.5C 236.5,387.5 240.5,387.5 244.5,387.5C 244.5,392.5 244.5,397.5 244.5,402.5C 240.5,402.5 236.5,402.5 232.5,402.5C 232.5,410.167 232.5,417.833 232.5,425.5C 226.167,425.5 219.833,425.5 213.5,425.5C 213.814,417.913 213.481,410.413 212.5,403C 198.171,402.5 183.837,402.333 169.5,402.5C 169.589,399.291 169.256,396.125 168.5,393C 182.275,368.616 196.942,344.782 212.5,321.5 Z"/></g>
<g><path style="opacity:1" fill="#ff8800" d="M 211.5,348.5 C 213.481,361.124 214.148,374.124 213.5,387.5C 204.808,387.831 196.141,387.498 187.5,386.5C 195.511,373.805 203.511,361.139 211.5,348.5 Z"/></g>
</svg>
