<?xml version="1.0" encoding="UTF-8"?>
<!DOCTYPE svg PUBLIC "-//W3C//DTD SVG 1.1//EN" "http://www.w3.org/Graphics/SVG/1.1/DTD/svg11.dtd">
<svg xmlns="http://www.w3.org/2000/svg" version="1.1" width="128px" height="128px" style="shape-rendering:geometricPrecision; text-rendering:geometricPrecision; image-rendering:optimizeQuality; fill-rule:evenodd; clip-rule:evenodd" xmlns:xlink="http://www.w3.org/1999/xlink">
<g><path style="opacity:1" fill="#fefffe" d="M 101.5,-0.5 C 106.167,-0.5 110.833,-0.5 115.5,-0.5C 116.477,20.4543 116.811,41.4543 116.5,62.5C 111.167,62.5 105.833,62.5 100.5,62.5C 100.189,41.4543 100.523,20.4543 101.5,-0.5 Z"/></g>
<g><path style="opacity:1" fill="#fefffe" d="M 72.5,11.5 C 76.5138,11.3345 80.5138,11.5012 84.5,12C 85,12.5 85.5,13 86,13.5C 86.4999,29.8299 86.6666,46.1633 86.5,62.5C 81.1667,62.5 75.8333,62.5 70.5,62.5C 70.3334,46.1633 70.5001,29.8299 71,13.5C 71.7172,12.9558 72.2172,12.2891 72.5,11.5 Z"/></g>
<g><path style="opacity:1" fill="#fefffe" d="M 41.5,24.5 C 46.6483,23.9264 51.4816,24.593 56,26.5C 56.4999,38.4954 56.6665,50.4954 56.5,62.5C 51.1667,62.5 45.8333,62.5 40.5,62.5C 40.2051,49.7836 40.5385,37.117 41.5,24.5 Z"/></g>
<g><path style="opacity:1" fill="#fefffe" d="M 12.5,36.5 C 16.5138,36.3345 20.5138,36.5012 24.5,37C 25,37.5 25.5,38 26,38.5C 26.4997,46.4931 26.6664,54.4931 26.5,62.5C 21.1667,62.5 15.8333,62.5 10.5,62.5C 10.3336,54.4931 10.5003,46.4931 11,38.5C 11.7172,37.9558 12.2172,37.2891 12.5,36.5 Z"/></g>
<g><path style="opacity:1" fill="#fefffe" d="M 127.5,76.5 C 127.5,91.5 127.5,106.5 127.5,121.5C 125.833,123.833 123.833,125.833 121.5,127.5C 82.8333,127.5 44.1667,127.5 5.5,127.5C 3.16667,125.833 1.16667,123.833 -0.5,121.5C -0.5,106.5 -0.5,91.5 -0.5,76.5C 1.39512,73.4433 4.06178,71.2767 7.5,70C 44.8333,69.3333 82.1667,69.3333 119.5,70C 122.938,71.2767 125.605,73.4433 127.5,76.5 Z M 48.5,82.5 C 51.2919,82.4521 53.1253,83.7854 54,86.5C 54.3333,91.5 54.6667,96.5 55,101.5C 56.1581,101.998 56.9915,102.831 57.5,104C 55.3102,106.716 53.9769,109.883 53.5,113.5C 51.6531,114.83 50.1531,114.497 49,112.5C 48.5065,110.866 48.3398,109.199 48.5,107.5C 44.8183,107.665 41.1516,107.499 37.5,107C 36.4844,106.481 35.8178,105.647 35.5,104.5C 38.8361,96.4816 43.1695,89.1482 48.5,82.5 Z M 76.5,82.5 C 81.3645,82.0011 85.8645,83.0011 90,85.5C 90.49,86.7932 90.6567,88.1266 90.5,89.5C 86.2376,88.2424 81.9043,87.7424 77.5,88C 70.0454,91.3571 67.8788,96.8571 71,104.5C 75.2049,109.594 80.3716,110.76 86.5,108C 88.4506,106.266 89.4506,104.099 89.5,101.5C 87.4727,101.662 85.4727,101.495 83.5,101C 81.9926,100.163 81.4926,98.9961 82,97.5C 95.3608,93.5975 98.6941,97.5975 92,109.5C 82.9885,117.667 74.6551,117 67,107.5C 62.0122,95.9534 65.1789,87.6201 76.5,82.5 Z"/></g>
<g><path style="opacity:1" fill="#fefffe" d="M 47.5,91.5 C 48.4794,94.6248 48.8128,97.9581 48.5,101.5C 46.4727,101.662 44.4727,101.495 42.5,101C 44.3196,97.8586 45.9862,94.6919 47.5,91.5 Z"/></g>
</svg>
